<mxfile host="app.diagrams.net" modified="2024-07-03T06:56:46.371Z" agent="Mozilla/5.0 (Windows NT 10.0; Win64; x64) AppleWebKit/537.36 (KHTML, like Gecko) Chrome/126.0.0.0 Safari/537.36" etag="7wsM2oz0k_F7RUjTAjD9" version="24.6.4" type="device">
  <diagram name="Page-1" id="SZvauDomw3pjkBjhXnOG">
    <mxGraphModel dx="1450" dy="1007" grid="0" gridSize="10" guides="1" tooltips="1" connect="1" arrows="1" fold="1" page="0" pageScale="1" pageWidth="827" pageHeight="1169" background="#131311" math="0" shadow="0">
      <root>
        <mxCell id="0" />
        <mxCell id="1" parent="0" />
        <mxCell id="KYfJQkNLqYHOC3bFP8tM-1" value="Start" style="ellipse;whiteSpace=wrap;html=1;fillColor=#f8cecc;strokeColor=#b85450;strokeWidth=4;fillStyle=solid;gradientColor=#ea6b66;" vertex="1" parent="1">
          <mxGeometry x="-18" y="-134" width="149" height="80" as="geometry" />
        </mxCell>
        <mxCell id="KYfJQkNLqYHOC3bFP8tM-4" value="Calculate s= (a+b+c) /2&amp;nbsp;" style="rounded=0;whiteSpace=wrap;html=1;strokeWidth=3;fillColor=#f5f5f5;gradientColor=#b3b3b3;strokeColor=#666666;" vertex="1" parent="1">
          <mxGeometry x="-45" y="102" width="172" height="60" as="geometry" />
        </mxCell>
        <mxCell id="KYfJQkNLqYHOC3bFP8tM-5" value="Calculate&amp;nbsp;&lt;div&gt;area =sqrt(s*(s-a)*(s-b)*(s-c))&lt;/div&gt;" style="rounded=0;whiteSpace=wrap;html=1;strokeWidth=3;fillColor=#f5f5f5;gradientColor=#b3b3b3;strokeColor=#666666;" vertex="1" parent="1">
          <mxGeometry x="-48" y="222" width="179" height="60" as="geometry" />
        </mxCell>
        <mxCell id="KYfJQkNLqYHOC3bFP8tM-7" value="Input a,b,c" style="shape=parallelogram;perimeter=parallelogramPerimeter;whiteSpace=wrap;html=1;fixedSize=1;strokeWidth=3;fillColor=#f5f5f5;gradientColor=#b3b3b3;strokeColor=#666666;" vertex="1" parent="1">
          <mxGeometry x="-25" y="-10" width="152" height="60" as="geometry" />
        </mxCell>
        <mxCell id="KYfJQkNLqYHOC3bFP8tM-8" value="Print area" style="shape=parallelogram;perimeter=parallelogramPerimeter;whiteSpace=wrap;html=1;fixedSize=1;strokeWidth=3;fillColor=#f5f5f5;gradientColor=#b3b3b3;strokeColor=#666666;" vertex="1" parent="1">
          <mxGeometry x="-47" y="325" width="178" height="60" as="geometry" />
        </mxCell>
        <mxCell id="KYfJQkNLqYHOC3bFP8tM-10" value="End" style="rounded=1;whiteSpace=wrap;html=1;fillColor=#f8cecc;strokeColor=#b85450;strokeWidth=3;gradientColor=#ea6b66;" vertex="1" parent="1">
          <mxGeometry x="-49" y="443" width="180" height="60" as="geometry" />
        </mxCell>
      </root>
    </mxGraphModel>
  </diagram>
</mxfile>
